<svg version="1.1" id="Layer_1" xmlns="http://www.w3.org/2000/svg" xmlns:xlink="http://www.w3.org/1999/xlink" x="0px" y="0px"
	 width="100%" viewBox="0 0 89 550" enable-background="new 0 0 89 550" xml:space="preserve">
<path fill="#F9F9F9" opacity="1.000000" stroke="none" 
	d="
M90.000000,548.000000 
	C90.000000,548.999573 90.000000,549.999146 90.000000,550.999023 
	C60.346642,550.999390 30.693285,550.999390 1.019963,550.999390 
	C1.019963,367.759552 1.019963,184.519073 1.019963,1.139308 
	C30.560337,1.139308 60.121552,1.139308 90.000000,1.139308 
	C90.000000,93.020653 90.000000,185.041672 89.733536,277.548401 
	C89.294655,278.078339 89.122231,278.122528 88.594887,278.109894 
	C62.278881,291.708832 36.365505,305.456757 10.317719,318.945160 
	C4.903996,321.748535 2.664237,325.562500 2.676621,331.589478 
	C2.787777,385.685913 2.805165,439.782806 2.656084,493.879028 
	C2.638632,500.211945 5.140438,504.093231 10.646663,506.875763 
	C22.337135,512.783508 33.867798,519.007202 45.471828,525.086365 
	C59.960182,532.676636 74.456444,540.251831 89.208054,547.899780 
	C89.644554,547.977356 89.822273,547.988708 90.000000,548.000000 
M88.261139,125.500107 
	C88.261139,85.114540 88.261139,44.728970 88.261139,3.977224 
	C87.124390,4.385509 86.654579,4.493883 86.242043,4.711046 
	C60.533955,18.244175 34.832870,31.790611 9.124554,45.323311 
	C4.496911,47.759281 2.696633,51.603523 2.702252,56.761822 
	C2.761611,111.254883 2.764687,165.748062 2.700450,220.241104 
	C2.693813,225.870911 5.014276,229.537781 10.015299,232.133072 
	C27.695272,241.308075 45.258194,250.708481 62.876156,260.003204 
	C71.152298,264.369446 79.452744,268.689636 88.261154,273.302490 
	C88.261154,223.803909 88.261154,175.152008 88.261139,125.500107 
z"/>
<path fill="#5D5B5A" opacity="1.000000" stroke="none" 
	d="
M90.000000,547.531372 
	C89.822273,547.988708 89.644554,547.977356 89.226227,547.442261 
	C88.973686,457.334503 88.961746,367.750641 88.949806,278.166748 
	C89.122231,278.122528 89.294655,278.078339 89.733536,278.017059 
	C90.000000,367.687561 90.000000,457.375122 90.000000,547.531372 
z"/>
<path fill="#2B2C2B" opacity="1.000000" stroke="none" 
	d="
M88.594887,278.109894 
	C88.961746,367.750641 88.973686,457.334503 88.967461,547.375977 
	C74.456444,540.251831 59.960182,532.676636 45.471828,525.086365 
	C33.867798,519.007202 22.337135,512.783508 10.646663,506.875763 
	C5.140438,504.093231 2.638632,500.211945 2.656084,493.879028 
	C2.805165,439.782806 2.787777,385.685913 2.676621,331.589478 
	C2.664237,325.562500 4.903996,321.748535 10.317719,318.945160 
	C36.365505,305.456757 62.278881,291.708832 88.594887,278.109894 
z"/>
<path fill="#161516" opacity="1.000000" stroke="none" 
	d="
M88.261147,126.000107 
	C88.261154,175.152008 88.261154,223.803909 88.261154,273.302490 
	C79.452744,268.689636 71.152298,264.369446 62.876156,260.003204 
	C45.258194,250.708481 27.695272,241.308075 10.015299,232.133072 
	C5.014276,229.537781 2.693813,225.870911 2.700450,220.241104 
	C2.764687,165.748062 2.761611,111.254883 2.702252,56.761822 
	C2.696633,51.603523 4.496911,47.759281 9.124554,45.323311 
	C34.832870,31.790611 60.533955,18.244175 86.242043,4.711046 
	C86.654579,4.493883 87.124390,4.385509 88.261139,3.977224 
	C88.261139,44.728970 88.261139,85.114540 88.261147,126.000107 
z"/>
</svg>