<?xml version="1.0" encoding="UTF-8"?><svg id="Layer_1" xmlns="http://www.w3.org/2000/svg" viewBox="0 0 176.55 92.68"><defs><style>.cls-1{fill:#231f20;}.cls-2{fill:#1d1d1f;}</style></defs><g><path class="cls-1" d="M0,86.74c0-3.67,2.34-5.95,6-5.95s5.97,2.29,5.97,5.95-2.32,5.94-5.97,5.94S0,90.39,0,86.74Zm10.79,0c0-3.04-1.87-4.93-4.79-4.93s-4.82,1.89-4.82,4.93,1.87,4.91,4.82,4.91,4.79-1.89,4.79-4.91Zm-8.04,0c0-2.1,1.18-3.6,3.27-3.6,1.81,0,2.93,1.17,3.09,2.58h-1.12c-.06-.38-.43-1.46-1.92-1.46-1.68,0-2.13,1.2-2.13,2.48s.45,2.46,2.13,2.46c1.49,0,1.86-1.02,1.92-1.47h1.12c-.1,1.42-1.18,2.59-2.96,2.59-2.15,0-3.39-1.47-3.39-3.59Z"/><path class="cls-1" d="M17.23,85.27c0-2.29,1.25-4.1,3.99-4.1,1.89,0,3.52,1.2,3.52,3.31s-1.73,3.15-3.35,4.1c-1.25,.72-2.43,1.41-2.74,2.56v.03h5.92v1.28h-7.67c0-2,1.26-3.57,3.3-4.75,2.06-1.2,3.03-1.58,3.03-3.2,0-.93-.35-2.05-2.05-2.05-1.94,0-2.45,1.3-2.45,2.82h-1.5Z"/><path class="cls-1" d="M26.02,86.93c0-3.14,1.23-5.76,4.26-5.76s4.26,2.62,4.26,5.76-1.23,5.75-4.26,5.75-4.26-2.61-4.26-5.75Zm7.01,0c0-2.35-.64-4.48-2.75-4.48s-2.75,2.13-2.75,4.48,.64,4.47,2.75,4.47,2.75-2.11,2.75-4.47Z"/><path class="cls-1" d="M35.97,85.27c0-2.29,1.25-4.1,3.99-4.1,1.89,0,3.52,1.2,3.52,3.31s-1.73,3.15-3.35,4.1c-1.25,.72-2.43,1.41-2.74,2.56v.03h5.92v1.28h-7.67c0-2,1.26-3.57,3.3-4.75,2.06-1.2,3.03-1.58,3.03-3.2,0-.93-.35-2.05-2.05-2.05-1.94,0-2.45,1.3-2.45,2.82h-1.5Z"/><path class="cls-1" d="M44.94,84.71c0-2.03,1.33-3.54,4.07-3.54,1.89,0,3.55,1.1,3.55,3.06,0,1.17-.58,1.9-1.7,2.35v.03c1.49,.46,2.1,1.44,2.1,2.74,0,2.11-1.55,3.33-3.92,3.33-2.82,0-4.39-1.47-4.39-3.97h1.5c0,1.6,.67,2.69,2.77,2.69,1.9,0,2.53-.78,2.53-2.05,0-1.66-1.2-2.03-2.27-2.03h-1.18v-1.28h1.12c1.14,0,1.94-.53,1.94-1.81,0-.9-.54-1.78-2.05-1.78-2.16,0-2.56,1.17-2.56,2.26h-1.5Z"/></g><path class="cls-2" d="M8.03,17.26c-3.87,0-5.33-1.98-5.59-4.55H0c.26,4.16,3.48,6.6,8.14,6.6s6.63-2.44,6.63-5.51c0-3.95-3.3-4.78-6.92-5.64-2.39-.57-4.63-1.04-4.63-3.35,0-1.77,1.27-2.76,3.87-2.76,2.99,0,4.29,1.33,4.63,3.82h2.44c-.31-3.74-2.89-5.88-7.1-5.88S.78,1.95,.78,4.91c0,3.59,3.3,4.45,6.11,5.15,3.61,.91,5.43,1.22,5.43,3.82,0,1.9-.94,3.38-4.29,3.38Z"/><polygon class="cls-2" points="21.27 18.95 23.61 18.95 23.61 2.44 29.8 2.44 29.8 .36 15.08 .36 15.08 2.44 21.27 2.44 21.27 18.95"/><path class="cls-2" d="M38.74,19.32c4.97,0,7.12-2.76,7.12-6.55V.36h-2.34V12.77c0,3.02-1.56,4.47-4.78,4.47s-4.78-1.46-4.78-4.47V.36h-2.34V12.77c0,3.8,2.16,6.55,7.12,6.55Z"/><path class="cls-2" d="M64.12,9.67c0-5.98-3.15-9.31-8.27-9.31h-6.73V18.95h6.73c5.12,0,8.27-3.3,8.27-9.28Zm-12.66-7.23h4.39c4.73,0,5.82,3.59,5.82,7.23s-1.09,7.2-5.82,7.2h-4.39V2.44Z"/><rect class="cls-2" x="66.72" y=".36" width="2.34" height="18.59"/><path class="cls-2" d="M80.76,19.32c5.46,0,9.1-4.08,9.1-9.67S86.22,0,80.76,0s-9.1,4.06-9.1,9.65,3.64,9.67,9.1,9.67Zm0-17.24c4.68,0,6.66,3.56,6.66,7.57s-1.98,7.59-6.66,7.59-6.66-3.59-6.66-7.59,1.98-7.57,6.66-7.57Z"/><polygon class="cls-2" points="108.35 3.67 108.4 3.67 114.02 18.95 116.1 18.95 121.71 3.67 121.77 3.67 121.77 18.95 124.11 18.95 124.11 .36 120.91 .36 115.08 15.81 115.03 15.81 109.21 .36 106.01 .36 106.01 18.95 108.35 18.95 108.35 3.67"/><path class="cls-2" d="M132.76,.36l-6.86,18.59h2.42l1.64-4.65h8.19l1.64,4.65h2.52L135.39,.36h-2.63Zm-2.03,11.86l3.3-9.7h.05l3.3,9.7h-6.66Z"/><polygon class="cls-2" points="156.29 15.63 156.24 15.63 146.96 .36 144.1 .36 144.1 18.95 146.44 18.95 146.44 3.69 146.49 3.69 155.77 18.95 158.63 18.95 158.63 .36 156.29 .36 156.29 15.63"/><polygon class="cls-2" points="174.21 .36 174.21 15.63 174.16 15.63 164.87 .36 162.01 .36 162.01 18.95 164.35 18.95 164.35 3.69 164.41 3.69 173.69 18.95 176.55 18.95 176.55 .36 174.21 .36"/><circle class="cls-2" cx="94.9" cy="9.45" r="1.5"/><circle class="cls-2" cx="94.9" cy="17.32" r="1.5"/><path class="cls-2" d="M0,44.97v.38H4.5c2.63,0,5.02-.95,5.02-3.85,0-1.96-1.53-3.39-3.64-3.53v-.05c1.67-.22,2.93-1.42,2.93-3.4,0-2.43-1.75-3.56-4.14-3.56H0v.38c1.71,0,1.87,.25,1.87,1.35v10.95c0,1.1-.16,1.35-1.87,1.35Zm2.97-12.84c0-.27,.13-.43,.4-.49,.38-.07,.79-.09,1.21-.09,1.53,0,3.11,.83,3.11,2.97s-1.58,3.13-3.11,3.13c-.54,0-1.08,0-1.6-.07v-5.46Zm0,6.21c.52-.07,1.04-.07,1.6-.07,1.37,0,3.78,.67,3.78,3.24s-2.07,3.22-3.93,3.22c-.95,0-1.46-.11-1.46-.58v-5.82Z"/><path class="cls-2" d="M13.88,36.55c.2,0,.29,.07,.47,.25,.16,.18,.29,.29,.54,.29,.31,0,.65-.29,.65-.81,0-.41-.31-.7-.83-.7-.88,0-1.66,.79-2.16,1.8h-.05v-1.6l-.22-.2-1.94,.79,.14,.34c1.04-.41,1.04-.22,1.04,.92v6c0,1.12-.14,1.35-1.17,1.35v.38h3.93v-.4c-1.58,0-1.78-.22-1.78-1.37v-5.28c.49-1.21,.97-1.76,1.39-1.76Z"/><path class="cls-2" d="M21.71,45.64c.97,0,1.28-.97,1.3-2.2h-.38c-.02,1.21-.31,1.57-.68,1.57-.29,0-.52-.22-.52-1.21v-5.53c0-1.91-.99-2.72-2.34-2.72-1.51,0-2.65,1.01-2.65,2.27,0,.58,.25,.99,.74,.99,.4,0,.61-.25,.61-.63s-.25-.54-.25-.97c0-.67,.59-1.04,1.37-1.04,.95,0,1.53,.56,1.53,2.12v1.03c-1.98,.95-4.41,2-4.41,4.23,0,1.13,.65,2.09,1.84,2.09s2.09-.92,2.57-2.7v.72c0,1.33,.47,1.98,1.28,1.98Zm-3.55-.92c-.74,0-1.1-.61-1.1-1.42,0-1.71,1.75-2.59,3.37-3.46v2.14c-.56,1.96-1.46,2.74-2.27,2.74Z"/><path class="cls-2" d="M28.28,35.57c-1.08,0-1.8,.7-2.57,1.71h-.05v-1.51l-.23-.2-1.94,.79,.14,.36c1.06-.43,1.04-.23,1.04,.9v6c0,1.12-.14,1.35-1.17,1.35v.38h3.29v-.38c-1.01,0-1.13-.23-1.13-1.35v-5.73c.72-.83,1.4-1.42,2.27-1.42,.74,0,1.19,.5,1.19,1.58v5.56c0,1.12-.13,1.35-1.13,1.35v.38h3.28v-.38c-1.03,0-1.15-.23-1.15-1.35v-5.62c0-1.46-.54-2.43-1.82-2.43Z"/><path class="cls-2" d="M37.21,45.64l1.98-.86-.16-.34c-1.08,.47-1.06,.27-1.06-.86v-12.8l-.18-.2-2.03,.92,.16,.34c1.08-.49,1.04-.29,1.04,.83v3.91h-.02c-.4-.63-1.04-.99-1.93-.99-1.94,0-2.99,2.43-2.99,5.29,0,2.68,.9,4.77,2.61,4.77,1.08,0,1.82-.67,2.25-1.66h.07v1.44l.25,.22Zm-2.23-.9c-1.3,0-1.87-1.84-1.87-4.25,0-2.11,.54-4.21,2.03-4.21,1.19,0,1.82,1.35,1.82,3.29v3.58c-.45,.81-1.01,1.58-1.98,1.58Z"/><path class="cls-2" d="M45.15,43.23c0-1.24-.7-2-2.3-3.37-1.17-.99-1.71-1.46-1.71-2.29s.56-1.39,1.33-1.39c1.21,0,1.89,1.13,2.03,2.54h.36l-.04-3.02h-.36l-.07,.38c-.04,.22-.22,.31-.45,.09-.29-.25-.79-.59-1.55-.59-1.28,0-2.16,.92-2.16,2.2,0,.97,.5,1.58,1.94,2.83,1.64,1.44,2.05,1.82,2.05,2.74,0,1.01-.47,1.69-1.37,1.69-1.15,0-2.16-1.08-2.4-3.35h-.34l.09,3.78h.36l.13-.36c.09-.22,.23-.27,.47-.09,.34,.27,.97,.63,1.76,.63,1.19,0,2.21-.81,2.21-2.41Z"/><path class="cls-2" d="M55.62,45.64c.97,0,1.28-.97,1.3-2.2h-.38c-.02,1.21-.31,1.57-.68,1.57-.29,0-.52-.22-.52-1.21v-5.53c0-1.91-.99-2.72-2.34-2.72-1.51,0-2.65,1.01-2.65,2.27,0,.58,.25,.99,.74,.99,.4,0,.61-.25,.61-.63s-.25-.54-.25-.97c0-.67,.59-1.04,1.37-1.04,.95,0,1.53,.56,1.53,2.12v1.03c-1.98,.95-4.41,2-4.41,4.23,0,1.13,.65,2.09,1.84,2.09s2.09-.92,2.57-2.7v.72c0,1.33,.47,1.98,1.28,1.98Zm-3.55-.92c-.74,0-1.1-.61-1.1-1.42,0-1.71,1.75-2.59,3.37-3.46v2.14c-.56,1.96-1.46,2.74-2.27,2.74Z"/><path class="cls-2" d="M64.01,38c0-1.46-.54-2.43-1.82-2.43-1.08,0-1.8,.7-2.57,1.71h-.05v-1.51l-.23-.2-1.94,.79,.14,.36c1.06-.43,1.04-.23,1.04,.9v6c0,1.12-.14,1.35-1.17,1.35v.38h3.29v-.38c-1.01,0-1.13-.23-1.13-1.35v-5.73c.72-.83,1.4-1.42,2.27-1.42,.74,0,1.19,.5,1.19,1.58v5.56c0,1.12-.13,1.35-1.13,1.35v.38h3.28v-.38c-1.03,0-1.15-.23-1.15-1.35v-5.62Z"/><path class="cls-2" d="M72.94,44.43c-1.08,.47-1.06,.27-1.06-.86v-12.8l-.18-.2-2.03,.92,.16,.34c1.08-.49,1.04-.29,1.04,.83v3.91h-.02c-.4-.63-1.04-.99-1.93-.99-1.94,0-2.99,2.43-2.99,5.29,0,2.68,.9,4.77,2.61,4.77,1.08,0,1.82-.67,2.25-1.66h.07v1.44l.25,.22,1.98-.86-.16-.34Zm-2.07-1.28c-.45,.81-1.01,1.58-1.98,1.58-1.3,0-1.87-1.84-1.87-4.25,0-2.11,.54-4.21,2.03-4.21,1.19,0,1.82,1.35,1.82,3.29v3.58Z"/><path class="cls-2" d="M88.69,36.26v-.38h-2.83v.38c1.21,0,1.21,.2,.9,1.28l-1.66,6.05h-.05l-1.39-6.03c-.25-1.08-.25-1.3,.76-1.3v-.38h-3.01v.38c.68,0,.92,.22,1.19,1.3l.13,.5-1.46,5.53h-.05l-1.66-6.05c-.29-1.08-.34-1.28,.56-1.28v-.38h-3.01v.38c.81,0,1.06,.2,1.37,1.28l2.23,7.98h.63l1.66-6.32,1.57,6.32h.58l2.23-7.98c.29-1.08,.56-1.28,1.31-1.28Z"/><path class="cls-2" d="M88.61,40.76c0,2.84,1.08,4.88,2.94,4.88,1.44,0,2.61-1.22,2.9-4.09h-.38c-.41,2.47-1.37,3.17-2.2,3.17-1.42,0-2.21-1.94-2.21-4.3v-.34h4.68c0-2.68-.99-4.5-2.72-4.5-1.89,0-3.01,2.32-3.01,5.19Zm3.03-4.57c1.21,0,1.64,1.64,1.64,3.28h-3.58c.16-1.76,.77-3.28,1.94-3.28Z"/><path class="cls-2" d="M96.19,32.66v11.79c.72,.77,1.76,1.17,2.68,1.17,2.12,0,3.33-2.12,3.33-5.37,0-2.92-.99-4.68-2.52-4.68-.95,0-1.78,.63-2.41,1.6h-.07v-6.41l-.18-.2-2,.9,.16,.34c1.03-.47,1.01-.27,1.01,.85Zm1.01,5.26c.52-.83,1.21-1.44,1.98-1.44,1.17,0,1.94,1.39,1.94,4s-.81,4.48-2.21,4.48c-.81,0-1.42-.56-1.71-.97v-6.07Z"/><path class="cls-2" d="M104.04,45.1c.09-.22,.23-.27,.47-.09,.34,.27,.97,.63,1.76,.63,1.19,0,2.21-.81,2.21-2.41,0-1.24-.7-2-2.3-3.37-1.17-.99-1.71-1.46-1.71-2.29s.56-1.39,1.33-1.39c1.21,0,1.89,1.13,2.03,2.54h.36l-.04-3.02h-.36l-.07,.38c-.04,.22-.22,.31-.45,.09-.29-.25-.79-.59-1.55-.59-1.28,0-2.16,.92-2.16,2.2,0,.97,.5,1.58,1.94,2.83,1.64,1.44,2.05,1.82,2.05,2.74,0,1.01-.47,1.69-1.37,1.69-1.15,0-2.16-1.08-2.4-3.35h-.34l.09,3.78h.36l.13-.36Z"/><path class="cls-2" d="M110.16,32.58c0,.47,.38,.85,.88,.85s.86-.38,.86-.85-.38-.85-.86-.85-.88,.36-.88,.85Z"/><path class="cls-2" d="M111.71,43.62v-7.85l-.22-.2-.61,.23-1.31,.52,.14,.36c1.01-.4,1.01-.2,1.01,.94v6c0,1.12-.14,1.35-1.19,1.35v.38h3.37v-.38c-1.06,0-1.19-.23-1.19-1.35Z"/><path class="cls-2" d="M118.55,41.52h-.41c0,2.25-.43,3.28-1.3,3.28-.99,0-1.08-1.24-1.08-2.99v-5.31h2.18v-.61h-2.2v-2.54h-.45c-.07,1.55-.56,2.61-1.84,2.63v.52h1.3v5.94c0,2.4,.59,3.21,1.82,3.21,1.55,0,1.98-1.49,1.98-4.12Z"/><path class="cls-2" d="M125.24,40.08c0-2.68-.99-4.5-2.72-4.5-1.89,0-3.01,2.32-3.01,5.19s1.08,4.88,2.93,4.88c1.44,0,2.61-1.22,2.9-4.09h-.38c-.41,2.47-1.37,3.17-2.2,3.17-1.42,0-2.21-1.94-2.21-4.3v-.34h4.68Zm-2.7-3.89c1.21,0,1.64,1.64,1.64,3.28h-3.58c.16-1.76,.77-3.28,1.94-3.28Z"/><path class="cls-2" d="M129.37,39.86c-1.17-.99-1.71-1.46-1.71-2.29s.56-1.39,1.33-1.39c1.21,0,1.89,1.13,2.03,2.54h.36l-.04-3.02h-.36l-.07,.38c-.04,.22-.22,.31-.45,.09-.29-.25-.79-.59-1.55-.59-1.28,0-2.16,.92-2.16,2.2,0,.97,.5,1.58,1.94,2.83,1.64,1.44,2.05,1.82,2.05,2.74,0,1.01-.47,1.69-1.37,1.69-1.15,0-2.16-1.08-2.4-3.35h-.34l.09,3.78h.36l.13-.36c.09-.22,.23-.27,.47-.09,.34,.27,.97,.63,1.76,.63,1.19,0,2.21-.81,2.21-2.41,0-1.24-.7-2-2.3-3.37Z"/><path class="cls-2" d="M3.73,51.13c.36,0,.54,.14,.85,.59,.25,.36,.43,.65,.79,.65,.4,0,.61-.29,.61-.61,0-.63-.88-1.28-2-1.28-1.44,0-2.68,1.03-2.68,3.69v1.75l-1.17,.13v.45H1.3v7.13c0,1.12-.14,1.35-1.28,1.35v.38H4.03v-.38c-1.55,0-1.75-.23-1.75-1.35v-7.13h1.94v-.61h-1.94v-1.82c0-2.21,.61-2.93,1.44-2.93Z"/><path class="cls-2" d="M8.17,65.64c2.14,0,3.37-2.29,3.37-5.08s-1.39-4.99-3.37-4.99c-2.16,0-3.38,2.29-3.38,5.08s1.39,4.99,3.38,4.99Zm-.23-9.43c1.71,0,2.56,2.68,2.56,5.13,0,1.82-.63,3.67-2.09,3.67-1.73,0-2.57-2.66-2.57-5.11,0-1.84,.63-3.69,2.11-3.69Z"/><path class="cls-2" d="M16.06,56.55c.2,0,.29,.07,.47,.25,.16,.18,.29,.29,.54,.29,.31,0,.65-.29,.65-.81,0-.41-.31-.7-.83-.7-.88,0-1.66,.79-2.16,1.8h-.05v-1.6l-.22-.2-1.94,.79,.14,.34c1.04-.41,1.04-.22,1.04,.92v6c0,1.12-.14,1.35-1.17,1.35v.38h3.93v-.4c-1.58,0-1.78-.22-1.78-1.37v-5.28c.49-1.21,.97-1.76,1.39-1.76Z"/><path class="cls-2" d="M27.15,63.98h.07v1.44l.25,.22,1.98-.86-.16-.34c-1.08,.47-1.06,.27-1.06-.86v-12.8l-.18-.2-2.03,.92,.16,.34c1.08-.49,1.04-.29,1.04,.83v3.91h-.02c-.4-.63-1.04-.99-1.93-.99-1.94,0-2.99,2.43-2.99,5.29,0,2.68,.9,4.77,2.61,4.77,1.08,0,1.82-.67,2.25-1.66Zm-1.91,.76c-1.3,0-1.87-1.84-1.87-4.25,0-2.11,.54-4.21,2.03-4.21,1.19,0,1.82,1.35,1.82,3.29v3.58c-.45,.81-1.01,1.58-1.98,1.58Z"/><path class="cls-2" d="M35.68,61.55c-.41,2.47-1.37,3.17-2.2,3.17-1.42,0-2.21-1.94-2.21-4.3v-.34h4.68c0-2.68-.99-4.5-2.72-4.5-1.89,0-3.01,2.32-3.01,5.19s1.08,4.88,2.94,4.88c1.44,0,2.61-1.22,2.9-4.09h-.38Zm-2.43-5.37c1.21,0,1.64,1.64,1.64,3.28h-3.58c.16-1.76,.77-3.28,1.94-3.28Z"/><path class="cls-2" d="M40.09,65.03c-1.15,0-2.16-1.08-2.4-3.35h-.34l.09,3.78h.36l.13-.36c.09-.22,.23-.27,.47-.09,.34,.27,.97,.63,1.76,.63,1.19,0,2.21-.81,2.21-2.41,0-1.24-.7-2-2.3-3.37-1.17-.99-1.71-1.46-1.71-2.29s.56-1.39,1.33-1.39c1.21,0,1.89,1.13,2.03,2.54h.36l-.04-3.02h-.36l-.07,.38c-.04,.22-.22,.31-.45,.09-.29-.25-.79-.59-1.55-.59-1.28,0-2.16,.92-2.16,2.2,0,.97,.5,1.58,1.94,2.83,1.64,1.44,2.05,1.82,2.05,2.74,0,1.01-.47,1.69-1.37,1.69Z"/><path class="cls-2" d="M46.78,64.97c-1.06,0-1.19-.23-1.19-1.35v-7.85l-.22-.2-.61,.23-1.31,.52,.14,.36c1.01-.4,1.01-.2,1.01,.94v6c0,1.12-.14,1.35-1.19,1.35v.38h3.37v-.38Z"/><path class="cls-2" d="M44.05,52.58c0,.47,.38,.85,.88,.85s.86-.38,.86-.85-.38-.85-.86-.85-.88,.36-.88,.85Z"/><path class="cls-2" d="M52.54,64.23h-1.85c-1.75,0-1.82-.47-1.82-.95,0-.41,.27-.74,.7-1.12,.4,.23,.88,.38,1.42,.38,1.73,0,2.88-1.44,2.88-3.48,0-1.15-.38-2.11-1.01-2.72,.49-.09,.92,.05,1.53,.05,.4,0,.59-.18,.59-.45,0-.23-.09-.41-.5-.41-.58,0-1.26,.18-1.94,.52-.43-.31-.95-.47-1.55-.47-1.75,0-2.9,1.46-2.9,3.49,0,1.22,.41,2.21,1.13,2.83-.68,.52-1.17,1.1-1.17,1.8,0,.58,.25,1.06,.95,1.31-.95,.56-1.8,1.24-1.8,2.4,0,1.51,1.53,2.18,3.26,2.18,2.75,0,4.68-1.8,4.68-3.6,0-1.33-.79-1.76-2.61-1.76Zm-3.4-5.56c0-1.28,.47-2.5,1.66-2.5,1.42,0,2.03,1.85,2.03,3.4,0,1.39-.52,2.4-1.64,2.4-1.49,0-2.05-1.82-2.05-3.3Zm1.57,10.08c-1.8,0-2.63-.77-2.63-1.64,0-.76,.68-1.42,1.49-1.94,.29,.05,.63,.07,1.03,.07h1.93c1.39,0,1.93,.2,1.93,1.06,0,1.17-1.42,2.45-3.75,2.45Z"/><path class="cls-2" d="M62.16,63.62v-5.62c0-1.46-.54-2.43-1.82-2.43-1.08,0-1.8,.7-2.57,1.71h-.05v-1.51l-.23-.2-1.94,.79,.14,.36c1.06-.43,1.04-.23,1.04,.9v6c0,1.12-.14,1.35-1.17,1.35v.38h3.29v-.38c-1.01,0-1.13-.23-1.13-1.35v-5.73c.72-.83,1.4-1.42,2.27-1.42,.74,0,1.19,.5,1.19,1.58v5.56c0,1.12-.13,1.35-1.13,1.35v.38h3.28v-.38c-1.03,0-1.15-.23-1.15-1.35Z"/><rect class="cls-2" x="64.6" y="60.04" width="5.67" height=".9"/><path class="cls-2" d="M77.76,63.57v-12.8l-.18-.2-2.03,.92,.16,.34c1.08-.49,1.04-.29,1.04,.83v3.91h-.02c-.4-.63-1.04-.99-1.93-.99-1.94,0-2.99,2.43-2.99,5.29,0,2.68,.9,4.77,2.61,4.77,1.08,0,1.82-.67,2.25-1.66h.07v1.44l.25,.22,1.98-.86-.16-.34c-1.08,.47-1.06,.27-1.06-.86Zm-1.01-.41c-.45,.81-1.01,1.58-1.98,1.58-1.3,0-1.87-1.84-1.87-4.25,0-2.11,.54-4.21,2.03-4.21,1.19,0,1.82,1.35,1.82,3.29v3.58Z"/><path class="cls-2" d="M84.2,55.57c-.88,0-1.66,.79-2.16,1.8h-.05v-1.6l-.22-.2-1.94,.79,.14,.34c1.04-.41,1.04-.22,1.04,.92v6c0,1.12-.14,1.35-1.17,1.35v.38h3.93v-.4c-1.58,0-1.78-.22-1.78-1.37v-5.28c.49-1.21,.97-1.76,1.39-1.76,.2,0,.29,.07,.47,.25,.16,.18,.29,.29,.54,.29,.31,0,.65-.29,.65-.81,0-.41-.31-.7-.83-.7Z"/><path class="cls-2" d="M87.95,63.62v-7.85l-.22-.2-.61,.23-1.31,.52,.14,.36c1.01-.4,1.01-.2,1.01,.94v6c0,1.12-.14,1.35-1.19,1.35v.38h3.37v-.38c-1.06,0-1.19-.23-1.19-1.35Z"/><path class="cls-2" d="M86.4,52.58c0,.47,.38,.85,.88,.85s.86-.38,.86-.85-.38-.85-.86-.85-.88,.36-.88,.85Z"/><path class="cls-2" d="M97,55.88h-2.97v.38c1.22,0,1.21,.2,.9,1.28l-1.78,6.03h-.09l-1.71-6.03c-.31-1.08-.32-1.28,.9-1.28v-.38h-3.38v.38c.79,0,1.06,.2,1.39,1.28l2.36,7.98h.56l2.38-7.98c.32-1.08,.61-1.28,1.46-1.28v-.38Z"/><path class="cls-2" d="M100.21,64.72c-1.42,0-2.21-1.94-2.21-4.3v-.34h4.68c0-2.68-.99-4.5-2.72-4.5-1.89,0-3.01,2.32-3.01,5.19s1.08,4.88,2.93,4.88c1.44,0,2.61-1.22,2.9-4.09h-.38c-.41,2.47-1.37,3.17-2.2,3.17Zm-.23-8.53c1.21,0,1.64,1.64,1.64,3.28h-3.58c.16-1.76,.77-3.28,1.94-3.28Z"/><path class="cls-2" d="M110.41,63.62v-5.62c0-1.46-.54-2.43-1.82-2.43-1.08,0-1.8,.7-2.57,1.71h-.05v-1.51l-.23-.2-1.94,.79,.14,.36c1.06-.43,1.04-.23,1.04,.9v6c0,1.12-.14,1.35-1.17,1.35v.38h3.29v-.38c-1.01,0-1.13-.23-1.13-1.35v-5.73c.72-.83,1.4-1.42,2.27-1.42,.74,0,1.19,.5,1.19,1.58v5.56c0,1.12-.13,1.35-1.13,1.35v.38h3.28v-.38c-1.03,0-1.15-.23-1.15-1.35Z"/><path class="cls-2" d="M121.34,52.37c.4,0,.61-.29,.61-.61,0-.63-.88-1.28-2-1.28-1.44,0-2.68,1.03-2.68,3.69v1.75l-1.17,.13v.45h1.17v7.13c0,1.12-.14,1.35-1.28,1.35v.38h4.02v-.38c-1.55,0-1.75-.23-1.75-1.35v-7.13h1.94v-.61h-1.94v-1.82c0-2.21,.61-2.93,1.44-2.93,.36,0,.54,.14,.85,.59,.25,.36,.43,.65,.79,.65Z"/><path class="cls-2" d="M124.15,55.57c-2.16,0-3.38,2.29-3.38,5.08s1.39,4.99,3.38,4.99c2.14,0,3.37-2.29,3.37-5.08s-1.39-4.99-3.37-4.99Zm.23,9.43c-1.73,0-2.57-2.66-2.57-5.11,0-1.84,.63-3.69,2.11-3.69,1.71,0,2.56,2.68,2.56,5.13,0,1.82-.63,3.67-2.09,3.67Z"/><path class="cls-2" d="M130.48,63.62v-12.86l-.2-.2-.63,.27-1.37,.61,.16,.36c1.04-.49,1.03-.29,1.03,.83v10.98c0,1.12-.13,1.35-1.19,1.35v.38h3.37v-.38c-1.04,0-1.17-.23-1.17-1.35Z"/><path class="cls-2" d="M138.51,63.86l-2.48-4.27,1.87-2.36c.68-.88,1.17-.97,1.93-.97v-.38h-3.42v.38c.94,0,1.3,.23,.65,1.03l-2.02,2.59,2.3,3.98c.56,.97,.7,1.12-.52,1.12v.38h3.37v-.38c-.72,0-1.12-.14-1.67-1.12Z"/><path class="cls-2" d="M134.64,63.62v-12.86l-.2-.2-.63,.27-1.37,.61,.16,.36c1.04-.49,1.03-.29,1.03,.83v10.98c0,1.12-.13,1.35-1.19,1.35v.38h3.33v-.38c-1.03,0-1.13-.23-1.13-1.35Z"/><path class="cls-2" d="M143.59,59.86c-1.17-.99-1.71-1.46-1.71-2.29s.56-1.39,1.33-1.39c1.21,0,1.89,1.13,2.03,2.54h.36l-.04-3.02h-.36l-.07,.38c-.04,.22-.22,.31-.45,.09-.29-.25-.79-.59-1.55-.59-1.28,0-2.16,.92-2.16,2.2,0,.97,.5,1.58,1.94,2.83,1.64,1.44,2.05,1.82,2.05,2.74,0,1.01-.47,1.69-1.37,1.69-1.15,0-2.16-1.08-2.4-3.35h-.34l.09,3.78h.36l.13-.36c.09-.22,.23-.27,.47-.09,.34,.27,.97,.63,1.76,.63,1.19,0,2.21-.81,2.21-2.41,0-1.24-.7-2-2.3-3.37Z"/></svg>